{
	"asset":{
		"generator":"Khronos glTF Blender I/O v3.5.30",
		"version":"2.0"
	},
	"scene":0,
	"scenes":[
		{
			"name":"Scene",
			"nodes":[
				0,
				1
			]
		}
	],
	"nodes":[
		{
			"mesh":0,
			"name":"Torus.004"
		},
		{
			"mesh":1,
			"name":"Icing.001",
			"rotation":[
				-0.014257868751883507,
				-0.7297508120536804,
				-0.04323863610625267,
				0.6821956634521484
			],
			"scale":[
				0.11973457038402557,
				0.11973456293344498,
				0.11973460763692856
			],
			"translation":[
				-0.002594342455267906,
				0.008842706680297852,
				0.010122720152139664
			]
		}
	],
	"materials":[
		{
			"doubleSided":true,
			"name":"Material.002",
			"pbrMetallicRoughness":{
				"baseColorTexture":{
					"index":0
				},
				"metallicFactor":0,
				"roughnessFactor":0.1090908944606781
			}
		},
		{
			"doubleSided":true,
			"name":"Material.005",
			"pbrMetallicRoughness":{
				"baseColorFactor":[
					0.03310264274477959,
					0.01032325066626072,
					0,
					1
				],
				"metallicFactor":0,
				"roughnessFactor":0.07239726930856705
			}
		}
	],
	"meshes":[
		{
			"name":"Torus.004",
			"primitives":[
				{
					"attributes":{
						"POSITION":0,
						"TEXCOORD_0":1,
						"NORMAL":2
					},
					"indices":3,
					"material":0
				}
			]
		},
		{
			"name":"Torus.003",
			"primitives":[
				{
					"attributes":{
						"POSITION":4,
						"TEXCOORD_0":5,
						"NORMAL":6
					},
					"indices":7,
					"material":1
				}
			]
		}
	],
	"textures":[
		{
			"sampler":0,
			"source":0
		}
	],
	"images":[
		{
			"bufferView":4,
			"mimeType":"image/png",
			"name":"Donut base"
		}
	],
	"accessors":[
		{
			"bufferView":0,
			"componentType":5126,
			"count":483,
			"max":[
				0.1382557600736618,
				0.05618337169289589,
				0.15677621960639954
			],
			"min":[
				-0.13435444235801697,
				-0.05615568906068802,
				-0.1411529779434204
			],
			"type":"VEC3"
		},
		{
			"bufferView":1,
			"componentType":5126,
			"count":483,
			"type":"VEC2"
		},
		{
			"bufferView":2,
			"componentType":5126,
			"count":483,
			"type":"VEC3"
		},
		{
			"bufferView":3,
			"componentType":5123,
			"count":2640,
			"type":"SCALAR"
		},
		{
			"bufferView":5,
			"componentType":5126,
			"count":724,
			"max":[
				1.3067628145217896,
				0.5067521929740906,
				1.1717253923416138
			],
			"min":[
				-1.2859431505203247,
				-0.23502486944198608,
				-1.217619776725769
			],
			"type":"VEC3"
		},
		{
			"bufferView":6,
			"componentType":5126,
			"count":724,
			"type":"VEC2"
		},
		{
			"bufferView":7,
			"componentType":5126,
			"count":724,
			"type":"VEC3"
		},
		{
			"bufferView":8,
			"componentType":5123,
			"count":3840,
			"type":"SCALAR"
		}
	],
	"bufferViews":[
		{
			"buffer":0,
			"byteLength":5796,
			"byteOffset":0,
			"target":34962
		},
		{
			"buffer":0,
			"byteLength":3864,
			"byteOffset":5796,
			"target":34962
		},
		{
			"buffer":0,
			"byteLength":5796,
			"byteOffset":9660,
			"target":34962
		},
		{
			"buffer":0,
			"byteLength":5280,
			"byteOffset":15456,
			"target":34963
		},
		{
			"buffer":0,
			"byteLength":53708,
			"byteOffset":20736
		},
		{
			"buffer":0,
			"byteLength":8688,
			"byteOffset":74444,
			"target":34962
		},
		{
			"buffer":0,
			"byteLength":5792,
			"byteOffset":83132,
			"target":34962
		},
		{
			"buffer":0,
			"byteLength":8688,
			"byteOffset":88924,
			"target":34962
		},
		{
			"buffer":0,
			"byteLength":7680,
			"byteOffset":97612,
			"target":34963
		}
	],
	"samplers":[
		{
			"magFilter":9729,
			"minFilter":9987
		}
	],
	"buffers":[
		{
			"byteLength":105292,
			"uri":"data:application/octet-stream;base64,"
		}
	]
}
