{
	"asset":{
		"generator":"Khronos glTF Blender I/O v3.5.30",
		"version":"2.0"
	},
	"scene":0,
	"scenes":[
		{
			"name":"Scene",
			"nodes":[
				0
			]
		}
	],
	"nodes":[
		{
			"mesh":0,
			"name":"Torus"
		}
	],
	"animations":[
		{
			"channels":[
				{
					"sampler":0,
					"target":{
						"node":0,
						"path":"translation"
					}
				},
				{
					"sampler":1,
					"target":{
						"node":0,
						"path":"rotation"
					}
				},
				{
					"sampler":2,
					"target":{
						"node":0,
						"path":"scale"
					}
				}
			],
			"name":"Torus",
			"samplers":[
				{
					"input":4,
					"interpolation":"LINEAR",
					"output":5
				},
				{
					"input":4,
					"interpolation":"LINEAR",
					"output":6
				},
				{
					"input":4,
					"interpolation":"LINEAR",
					"output":7
				}
			]
		}
	],
	"materials":[
		{
			"doubleSided":true,
			"name":"Material.002",
			"pbrMetallicRoughness":{
				"baseColorFactor":[
					0.8000000715255737,
					0.282134085893631,
					0.08202586323022842,
					1
				],
				"metallicFactor":0,
				"roughnessFactor":0.20053476095199585
			}
		}
	],
	"meshes":[
		{
			"name":"Torus",
			"primitives":[
				{
					"attributes":{
						"POSITION":0,
						"TEXCOORD_0":1,
						"NORMAL":2
					},
					"indices":3,
					"material":0
				}
			]
		}
	],
	"accessors":[
		{
			"bufferView":0,
			"componentType":5126,
			"count":833,
			"max":[
				1.629601240158081,
				0.6499999761581421,
				1.660535216331482
			],
			"min":[
				-1.5843889713287354,
				-0.6512636542320251,
				-1.6335145235061646
			],
			"type":"VEC3"
		},
		{
			"bufferView":1,
			"componentType":5126,
			"count":833,
			"type":"VEC2"
		},
		{
			"bufferView":2,
			"componentType":5126,
			"count":833,
			"type":"VEC3"
		},
		{
			"bufferView":3,
			"componentType":5123,
			"count":4608,
			"type":"SCALAR"
		},
		{
			"bufferView":4,
			"componentType":5126,
			"count":511,
			"max":[
				21.041666666666668
			],
			"min":[
				-0.20833333333333334
			],
			"type":"SCALAR"
		},
		{
			"bufferView":5,
			"componentType":5126,
			"count":511,
			"type":"VEC3"
		},
		{
			"bufferView":6,
			"componentType":5126,
			"count":511,
			"type":"VEC4"
		},
		{
			"bufferView":7,
			"componentType":5126,
			"count":511,
			"type":"VEC3"
		}
	],
	"bufferViews":[
		{
			"buffer":0,
			"byteLength":9996,
			"byteOffset":0,
			"target":34962
		},
		{
			"buffer":0,
			"byteLength":6664,
			"byteOffset":9996,
			"target":34962
		},
		{
			"buffer":0,
			"byteLength":9996,
			"byteOffset":16660,
			"target":34962
		},
		{
			"buffer":0,
			"byteLength":9216,
			"byteOffset":26656,
			"target":34963
		},
		{
			"buffer":0,
			"byteLength":2044,
			"byteOffset":35872
		},
		{
			"buffer":0,
			"byteLength":6132,
			"byteOffset":37916
		},
		{
			"buffer":0,
			"byteLength":8176,
			"byteOffset":44048
		},
		{
			"buffer":0,
			"byteLength":6132,
			"byteOffset":52224
		}
	],
	"buffers":[
		{
			"byteLength":58356,
			"uri":"data:application/octet-stream;base64,"
		}
	]
}
